<?xml version="1.0" encoding="UTF-8"?>
<svg id="Capa_1" xmlns="http://www.w3.org/2000/svg" version="1.1" viewBox="0 0 1039.5 601.4">
  <!-- Generator: Adobe Illustrator 29.5.1, SVG Export Plug-In . SVG Version: 2.1.0 Build 141)  -->
  <path d="M123.4,15.4c.4-2.3,1.2-4.4,2.3-6.3,1.1-1.9,2.4-3.5,4-4.9,1.6-1.4,3.4-2.4,5.5-3.1,2.1-.7,4.3-1.1,6.6-1.1h47.6c2.9,0,5.6.6,7.9,1.7s4.3,2.6,5.8,4.6c1.5,1.9,2.6,4.1,3.1,6.7.5,2.5.5,5.2-.2,8.1l-49.3,258.6c-.5,2.1-1.3,4-2.3,5.7-1,1.7-2.2,3.1-3.7,4.2-1.5,1.1-3.1,2-5,2.6-1.8.6-3.9.9-6.2.9h-71.5c-2.3,0-4.3-.3-6.2-.8-1.9-.6-3.5-1.4-5-2.5-1.4-1.1-2.7-2.5-3.7-4.1-1-1.6-1.8-3.5-2.3-5.5L.7,21.2C0,18.3-.2,15.6.3,13.1c.5-2.6,1.5-4.8,3.1-6.8,1.5-1.9,3.5-3.5,5.9-4.6,2.4-1.1,5.1-1.7,8.1-1.7h50.3c2.4,0,4.7.4,6.8,1.1,2.1.8,3.9,1.8,5.5,3.2s3,3,4.1,5c1.1,1.9,1.8,4.1,2.2,6.4l12.4,121.3c.3,2.3,1,4,2,5.1,1,1.2,2.1,1.7,3.3,1.7s2.3-.5,3.3-1.6c1-1.1,1.7-2.8,2.1-5l14-121.8Z"/>
  <path d="M226.7,293c-5.1,0-9-1.3-11.6-4-2.7-2.7-4-6.6-4-11.6V15.7c0-5.1,1.3-9,4-11.7,2.7-2.7,6.6-4,11.6-4h129.9c5.1,0,9,1.3,11.7,4,2.7,2.7,4,6.6,4,11.7v29.4c0,5.1-1.3,9-4,11.6-2.7,2.7-6.6,4-11.7,4h-44.2c-4.4,0-7.8,1.1-10.1,3.4-2.3,2.3-3.5,5.7-3.5,10.2v25.9c0,4.4,1.2,7.8,3.5,10.1,2.3,2.3,5.7,3.5,10.1,3.5h36.7c5.1,0,9,1.3,11.7,4,2.7,2.7,4,6.6,4,11.7v27c0,5.1-1.3,8.9-4,11.6s-6.6,4-11.7,4h-36.7c-4.4,0-7.8,1.1-10.1,3.4-2.3,2.3-3.5,5.7-3.5,10.2v32.9c0,4.4,1.2,7.8,3.5,10.1,2.3,2.3,5.7,3.5,10.1,3.5h48c5.1,0,9,1.3,11.7,4,2.7,2.7,4,6.6,4,11.7v29.4c0,5.1-1.3,9-4,11.6-2.7,2.7-6.6,4-11.7,4h-133.6Z"/>
  <path d="M381.6,15.7c0-5.1,1.3-9,4-11.7,2.7-2.7,6.6-4,11.6-4h56.3c5.1,0,9,1.3,11.7,4,2.7,2.7,4,6.6,4,11.7v261.6c0,5.1-1.3,9-4,11.6-2.7,2.7-6.6,4-11.7,4h-56.3c-5.1,0-9-1.3-11.6-4-2.7-2.7-4-6.6-4-11.6V15.7Z"/>
  <path d="M495.3,293c-2.3,0-4.4-.4-6.3-1.2-2-.8-3.7-1.9-5.1-3.3-1.4-1.4-2.5-3.1-3.3-5-.8-2-1.2-4.1-1.2-6.4V16c0-2.3.4-4.5,1.2-6.4.8-2,1.9-3.6,3.3-5,1.4-1.4,3.1-2.5,5.1-3.3,2-.8,4.1-1.2,6.3-1.2h52.3c3.7,0,6.9,1,9.5,3,2.7,2,4.5,4.6,5.5,7.9l31,92.9c.5,1.2,1.1,2,1.8,2.5.7.5,1.4.6,2.2.5.7-.1,1.3-.6,1.8-1.4.5-.8.7-1.9.7-3.2l-1-85.9c0-2.4.4-4.6,1.2-6.5.8-2,1.9-3.7,3.3-5.1s3.1-2.6,5.1-3.4c2-.8,4.1-1.2,6.4-1.2h52.4c2.3,0,4.5.4,6.4,1.2,2,.8,3.6,1.9,5,3.3,1.4,1.4,2.5,3.1,3.3,5,.8,2,1.2,4.1,1.2,6.4v261.1c0,2.3-.4,4.5-1.2,6.4-.8,2-1.9,3.6-3.3,5-1.4,1.4-3.1,2.5-5,3.3-2,.8-4.1,1.2-6.4,1.2h-52.8c-3.5,0-6.6-.9-9.2-2.8-2.6-1.8-4.5-4.4-5.5-7.7l-32.3-84c-.6-1.6-1.3-2.7-2.1-3.3-.8-.7-1.7-.9-2.4-.7s-1.4.8-1.9,1.8c-.5,1-.7,2.4-.7,4.2l2.8,75.7c0,2.4-.3,4.7-1,6.7-.8,2-1.9,3.8-3.3,5.3-1.5,1.5-3.2,2.7-5.2,3.5-2,.8-4.2,1.2-6.6,1.2h-51.9Z"/>
  <path d="M851.8,0c5.1,0,9,1.3,11.7,4,2.7,2.7,4,6.6,4,11.7v29.4c0,5.1-1.3,9-4,11.6-2.7,2.7-6.6,4-11.7,4h-19.1c-3.6,0-6.3.9-8.2,2.7-1.9,1.8-2.8,4.5-2.8,8.2v205.7c0,5.1-1.3,9-4,11.6-2.7,2.7-6.6,4-11.7,4h-56.3c-5.1,0-8.9-1.3-11.6-4-2.7-2.7-4-6.6-4-11.6V71.7c0-3.6-.9-6.4-2.8-8.2-1.8-1.8-4.6-2.7-8.2-2.7h-19.1c-5.1,0-9-1.3-11.6-4-2.7-2.7-4-6.6-4-11.6V15.7c0-5.1,1.3-9,4-11.7,2.7-2.7,6.6-4,11.6-4h147.7Z"/>
  <path d="M888.2,293c-5.1,0-9-1.3-11.6-4-2.7-2.7-4-6.6-4-11.6V15.7c0-5.1,1.3-9,4-11.7,2.7-2.7,6.6-4,11.6-4h129.9c5.1,0,9,1.3,11.7,4,2.7,2.7,4,6.6,4,11.7v29.4c0,5.1-1.3,9-4,11.6-2.7,2.7-6.6,4-11.7,4h-44.2c-4.4,0-7.8,1.1-10.1,3.4-2.3,2.3-3.5,5.7-3.5,10.2v25.9c0,4.4,1.2,7.8,3.5,10.1,2.3,2.3,5.7,3.5,10.1,3.5h36.7c5.1,0,9,1.3,11.7,4,2.7,2.7,4,6.6,4,11.7v27c0,5.1-1.3,8.9-4,11.6s-6.6,4-11.7,4h-36.7c-4.4,0-7.8,1.1-10.1,3.4-2.3,2.3-3.5,5.7-3.5,10.2v32.9c0,4.4,1.2,7.8,3.5,10.1,2.3,2.3,5.7,3.5,10.1,3.5h48c5.1,0,9,1.3,11.7,4,2.7,2.7,4,6.6,4,11.7v29.4c0,5.1-1.3,9-4,11.6-2.7,2.7-6.6,4-11.7,4h-133.6Z"/>
  <path d="M123.4,323.8c.4-2.3,1.2-4.4,2.3-6.3,1.1-1.9,2.4-3.5,4-4.9,1.6-1.4,3.4-2.4,5.5-3.1,2.1-.7,4.3-1.1,6.6-1.1h47.6c2.9,0,5.6.6,7.9,1.7s4.3,2.6,5.8,4.6c1.5,1.9,2.6,4.1,3.1,6.7.5,2.5.5,5.2-.2,8.1l-49.3,258.6c-.5,2.1-1.3,4-2.3,5.7-1,1.7-2.2,3.1-3.7,4.2-1.5,1.1-3.1,2-5,2.6-1.8.6-3.9.9-6.2.9h-71.5c-2.3,0-4.3-.3-6.2-.8-1.9-.6-3.5-1.4-5-2.5-1.4-1.1-2.7-2.5-3.7-4.1-1-1.6-1.8-3.5-2.3-5.5L.7,329.7c-.8-2.9-.9-5.6-.4-8.2.5-2.6,1.5-4.8,3.1-6.8,1.5-1.9,3.5-3.5,5.9-4.6,2.4-1.1,5.1-1.7,8.1-1.7h50.3c2.4,0,4.7.4,6.8,1.1,2.1.8,3.9,1.8,5.5,3.2s3,3,4.1,5c1.1,1.9,1.8,4.1,2.2,6.4l12.4,121.3c.3,2.3,1,4,2,5.1,1,1.2,2.1,1.7,3.3,1.7s2.3-.5,3.3-1.6c1-1.1,1.7-2.8,2.1-5l14-121.8Z"/>
  <path d="M226.7,601.4c-5.1,0-9-1.3-11.6-4-2.7-2.7-4-6.6-4-11.6v-261.6c0-5.1,1.3-9,4-11.7,2.7-2.7,6.6-4,11.6-4h129.9c5.1,0,9,1.3,11.7,4,2.7,2.7,4,6.6,4,11.7v29.4c0,5.1-1.3,9-4,11.6-2.7,2.7-6.6,4-11.7,4h-44.2c-4.4,0-7.8,1.1-10.1,3.4-2.3,2.3-3.5,5.7-3.5,10.2v25.9c0,4.4,1.2,7.8,3.5,10.1,2.3,2.3,5.7,3.5,10.1,3.5h36.7c5.1,0,9,1.3,11.7,4,2.7,2.7,4,6.6,4,11.7v27c0,5.1-1.3,8.9-4,11.6s-6.6,4-11.7,4h-36.7c-4.4,0-7.8,1.1-10.1,3.4-2.3,2.3-3.5,5.7-3.5,10.2v32.9c0,4.4,1.2,7.8,3.5,10.1,2.3,2.3,5.7,3.5,10.1,3.5h48c5.1,0,9,1.3,11.7,4,2.7,2.7,4,6.6,4,11.7v29.4c0,5.1-1.3,9-4,11.6-2.7,2.7-6.6,4-11.7,4h-133.6Z"/>
  <path d="M381.6,324.1c0-5.1,1.3-9,4-11.7,2.7-2.7,6.6-4,11.6-4h56.3c5.1,0,9,1.3,11.7,4,2.7,2.7,4,6.6,4,11.7v261.6c0,5.1-1.3,9-4,11.6-2.7,2.7-6.6,4-11.7,4h-56.3c-5.1,0-9-1.3-11.6-4-2.7-2.7-4-6.6-4-11.6v-261.6Z"/>
  <path d="M495.3,601.4c-2.3,0-4.4-.4-6.3-1.2-2-.8-3.7-1.9-5.1-3.3-1.4-1.4-2.5-3.1-3.3-5-.8-2-1.2-4.1-1.2-6.4v-261.1c0-2.3.4-4.5,1.2-6.4.8-2,1.9-3.6,3.3-5,1.4-1.4,3.1-2.5,5.1-3.3,2-.8,4.1-1.2,6.3-1.2h52.3c3.7,0,6.9,1,9.5,3,2.7,2,4.5,4.6,5.5,7.9l31,92.9c.5,1.2,1.1,2,1.8,2.5.7.5,1.4.6,2.2.5.7-.1,1.3-.6,1.8-1.4.5-.8.7-1.9.7-3.2l-1-85.9c0-2.4.4-4.6,1.2-6.5.8-2,1.9-3.7,3.3-5.1s3.1-2.6,5.1-3.4c2-.8,4.1-1.2,6.4-1.2h52.4c2.3,0,4.5.4,6.4,1.2,2,.8,3.6,1.9,5,3.3,1.4,1.4,2.5,3.1,3.3,5,.8,2,1.2,4.1,1.2,6.4v261.1c0,2.3-.4,4.5-1.2,6.4-.8,2-1.9,3.6-3.3,5-1.4,1.4-3.1,2.5-5,3.3-2,.8-4.1,1.2-6.4,1.2h-52.8c-3.5,0-6.6-.9-9.2-2.8-2.6-1.8-4.5-4.4-5.5-7.7l-32.3-84c-.6-1.6-1.3-2.7-2.1-3.3-.8-.7-1.7-.9-2.4-.7s-1.4.8-1.9,1.8c-.5,1-.7,2.4-.7,4.2l2.8,75.7c0,2.4-.3,4.7-1,6.7-.8,2-1.9,3.8-3.3,5.3-1.5,1.5-3.2,2.7-5.2,3.5-2,.8-4.2,1.2-6.6,1.2h-51.9Z"/>
  <path d="M851.8,308.4c5.1,0,9,1.3,11.7,4,2.7,2.7,4,6.6,4,11.7v29.4c0,5.1-1.3,9-4,11.6-2.7,2.7-6.6,4-11.7,4h-19.1c-3.6,0-6.3.9-8.2,2.7-1.9,1.8-2.8,4.5-2.8,8.2v205.7c0,5.1-1.3,9-4,11.6-2.7,2.7-6.6,4-11.7,4h-56.3c-5.1,0-8.9-1.3-11.6-4-2.7-2.7-4-6.6-4-11.6v-205.7c0-3.6-.9-6.4-2.8-8.2-1.8-1.8-4.6-2.7-8.2-2.7h-19.1c-5.1,0-9-1.3-11.6-4-2.7-2.7-4-6.6-4-11.6v-29.4c0-5.1,1.3-9,4-11.7,2.7-2.7,6.6-4,11.6-4h147.7Z"/>
  <path d="M888.2,601.4c-5.1,0-9-1.3-11.6-4-2.7-2.7-4-6.6-4-11.6v-261.6c0-5.1,1.3-9,4-11.7,2.7-2.7,6.6-4,11.6-4h129.9c5.1,0,9,1.3,11.7,4,2.7,2.7,4,6.6,4,11.7v29.4c0,5.1-1.3,9-4,11.6-2.7,2.7-6.6,4-11.7,4h-44.2c-4.4,0-7.8,1.1-10.1,3.4-2.3,2.3-3.5,5.7-3.5,10.2v25.9c0,4.4,1.2,7.8,3.5,10.1,2.3,2.3,5.7,3.5,10.1,3.5h36.7c5.1,0,9,1.3,11.7,4,2.7,2.7,4,6.6,4,11.7v27c0,5.1-1.3,8.9-4,11.6s-6.6,4-11.7,4h-36.7c-4.4,0-7.8,1.1-10.1,3.4-2.3,2.3-3.5,5.7-3.5,10.2v32.9c0,4.4,1.2,7.8,3.5,10.1,2.3,2.3,5.7,3.5,10.1,3.5h48c5.1,0,9,1.3,11.7,4,2.7,2.7,4,6.6,4,11.7v29.4c0,5.1-1.3,9-4,11.6-2.7,2.7-6.6,4-11.7,4h-133.6Z"/>
</svg>